# xmcd
#
# Track frame offsets: 
#        150
#        26405
#        45869
#        66477
#        83555
#        107252
#        126252
#        147686
#
# Disc length: 2229 seconds
#
# Revision: 0
# Processed by: cddbd v1.5.2PL0 Copyright (c) Steve Scherf et al.
# Submitted via: ExactAudioCopy v0.99pb4
#
DISCID=6408b308
DTITLE=Sedan - Sedan
DYEAR=1985
DGENRE=Soul
TTITLE0=Keep It Comin' 
TTITLE1=You Ain't Got To Do Nothing
TTITLE2=Just Be My Lover
TTITLE3=Security
TTITLE4=All Night Affair
TTITLE5=Kraz-y 'Boutcha
TTITLE6=Stick To Your Dream
TTITLE7=Snake Dancin'
EXTD=
EXTT0=
EXTT1=
EXTT2=
EXTT3=
EXTT4=
EXTT5=
EXTT6=
EXTT7=
PLAYORDER=
